<svg width="20" height="20" viewBox="0 0 20 20" fill="none" xmlns="http://www.w3.org/2000/svg">
<path d="M9.37516 13.9583H10.6252V10.6249H13.9585V9.37492H10.6252V6.04159H9.37516V9.37492H6.04183V10.6249H9.37516V13.9583ZM10.0002 17.9166C8.90294 17.9166 7.87183 17.7083 6.90683 17.2916C5.94127 16.8749 5.10433 16.3124 4.396 15.6041C3.68766 14.8958 3.12516 14.0588 2.7085 13.0933C2.29183 12.1283 2.0835 11.0971 2.0835 9.99992C2.0835 8.9027 2.29183 7.87131 2.7085 6.90575C3.12516 5.94075 3.68766 5.10409 4.396 4.39575C5.10433 3.68742 5.94127 3.12492 6.90683 2.70825C7.87183 2.29159 8.90294 2.08325 10.0002 2.08325C11.0974 2.08325 12.1288 2.29159 13.0943 2.70825C14.0593 3.12492 14.896 3.68742 15.6043 4.39575C16.3127 5.10409 16.8752 5.94075 17.2918 6.90575C17.7085 7.87131 17.9168 8.9027 17.9168 9.99992C17.9168 11.0971 17.7085 12.1283 17.2918 13.0933C16.8752 14.0588 16.3127 14.8958 15.6043 15.6041C14.896 16.3124 14.0593 16.8749 13.0943 17.2916C12.1288 17.7083 11.0974 17.9166 10.0002 17.9166Z" fill="white"/>
</svg>
