<svg width="20" height="20" viewBox="0 0 20 20" fill="none" xmlns="http://www.w3.org/2000/svg">
<path d="M10.0001 6.35825L11.2001 9.19158L12.2001 9.27492L14.2584 9.44992L11.9334 11.4666L12.1584 12.4499L12.6251 14.4583L10.8584 13.3916L10.0001 12.8583L9.14175 13.3749L7.37508 14.4416L7.84175 12.4333L8.06675 11.4499L5.74175 9.43325L7.80008 9.25825L8.80008 9.17492L9.19175 8.24992L10.0001 6.35825ZM10.0001 2.08325L7.65841 7.60825L1.66675 8.11658L6.21675 12.0583L4.85008 17.9166L10.0001 14.8083L15.1501 17.9166L13.7834 12.0583L18.3334 8.11658L12.3417 7.60825L10.0001 2.08325Z" fill="#707066"/>
</svg>
